Coordinates
version=1
nRows=9
nColumns=42
inDegrees=yes

Units are S.I. units (second, meters, Newtons, ...)
If the header above contains a line with 'inDegrees', this indicates whether rotational values are in degrees (yes) or radians (no).

endheader
time	pelvis_tilt	pelvis_list	pelvis_rotation	pelvis_tx	pelvis_ty	pelvis_tz	hip_flexion_r	hip_adduction_r	hip_rotation_r	knee_angle_r	knee_adduction_r	knee_angle_r_beta	ankle_angle_r	subtalar_angle_r	mtp_angle_r	hip_flexion_l	hip_adduction_l	hip_rotation_l	knee_angle_l	knee_adduction_l	knee_angle_l_beta	ankle_angle_l	subtalar_angle_l	mtp_angle_l	lumbar_extension	lumbar_bending	lumbar_rotation	arm_flex_r	arm_add_r	arm_rot_r	elbow_flex_r	pro_sup_r	wrist_flex_r	wrist_dev_r	arm_flex_l	arm_add_l	arm_rot_l	elbow_flex_l	pro_sup_l	wrist_flex_l	wrist_dev_l
      1.45000000	      8.00638750	     -1.51107583	     10.71459502	     -0.15882236	      0.87631372	      0.19736522	     -4.92364029	      9.15778798	      0.89731952	     14.26703740	      1.62473818	      0.24900678	     20.20680719	    -12.03407081	     -7.60330622	     18.32996760	      1.91012336	      3.18684071	     52.60411250	     -8.07218266	      0.91811496	     15.19003938	    -15.56511539	     -7.60330622	    -37.10063631	      7.15708990	     -4.12387913	     18.46971399	    -14.06141074	      3.40368783	     41.75786763	     90.00000001	      0.00000000	      0.00000000	     11.49208704	    -12.13128041	     -6.88402234	     30.90580058	     90.00000001	      0.00000000	      0.00000000
      1.46000000	      8.05757205	     -1.49558437	     10.68059765	     -0.15058440	      0.87585761	      0.19727419	     -5.76708947	      9.32037302	      1.21283312	     13.97549790	      1.53565970	      0.24391845	     20.55547662	    -12.07503200	     -7.59825078	     18.91031000	      2.06142728	      3.39261904	     50.45533563	     -7.57566090	      0.88061173	     14.93066052	    -15.28372076	     -7.59825078	    -37.07378330	      7.16309175	     -4.11534147	     19.10494040	    -14.25126348	      3.79492980	     42.18348687	     90.00000001	      0.00000000	      0.00000000	     11.13136356	    -11.96137334	     -7.36519634	     30.44164752	     90.00000001	      0.00000000	      0.00000000
      1.47000000	      7.86584794	     -1.68680330	     10.65873912	     -0.14256715	      0.87457798	      0.19732086	     -6.06445255	      9.74054213	      1.15575687	     14.11092300	      1.25498790	      0.24628207	     21.07789743	    -11.87052795	     -7.59652965	     19.96721294	      1.96091186	      3.36840877	     48.49923497	     -7.16213411	      0.84647133	     14.82063792	    -14.63903716	     -7.59652965	    -36.76859581	      7.32690791	     -4.00944966	     19.69636491	    -14.39098152	      3.87797846	     42.57184450	     90.00000001	      0.00000000	      0.00000000	     10.66337410	    -11.83681617	     -7.42759088	     30.25042349	     90.00000001	      0.00000000	      0.00000000
      1.48000000	      8.10271465	     -1.54295127	     10.55594311	     -0.13408765	      0.87442430	      0.19703462	     -7.25176673	      9.67316840	      1.57232357	     13.66454731	      1.37560871	      0.23849134	     21.52476990	    -11.80758446	     -7.59138144	     20.01529688	      2.15667224	      3.56444768	     45.82617654	     -6.49792810	      0.79981766	     14.47053379	    -14.44640875	     -7.59138144	    -36.95196435	      7.22851415	     -3.99440405	     20.33080766	    -14.61460863	      4.47298682	     42.97236375	     90.00000001	      0.00000000	      0.00000000	     10.40893190	    -11.64623350	     -8.14718100	     29.70741545	     90.00000001	      0.00000000	      0.00000000
      1.49000000	      7.94696176	     -1.71535912	     10.48285671	     -0.12602561	      0.87304109	      0.19704874	     -7.61731653	     10.05820125	      1.56095024	     13.77938481	      1.10457630	      0.24049563	     22.11366330	    -11.63119203	     -7.58942286	     20.86472211	      1.98260326	      3.39444897	     43.55637980	     -5.99233315	      0.76020224	     14.36709800	    -13.74771446	     -7.58942286	    -36.70004951	      7.36401744	     -3.86723613	     20.91150711	    -14.72317855	      4.62524400	     43.34454436	     90.00000001	      0.00000000	      0.00000000	     10.00231566	    -11.53973995	     -8.27731357	     29.52013407	     90.00000001	      0.00000000	      0.00000000
      1.50000000	      8.17181887	     -1.59665031	     10.35834739	     -0.11753196	      0.87262943	      0.19666223	     -8.77858908	      9.98493809	      1.84229949	     13.35249457	      1.22913600	      0.23304499	     22.53118348	    -11.37028591	     -7.58518180	     20.85100082	      2.10358588	      3.11907572	     40.72388080	     -5.55505499	      0.71076580	     14.13807881	    -13.16769324	     -7.58518180	    -36.86697166	      7.28479585	     -3.84979681	     21.54320607	    -14.92235081	      5.15574991	     43.73100434	     90.00000001	      0.00000000	      0.00000000	      9.73048826	    -11.38461338	     -8.91535476	     29.17172883	     90.00000001	      0.00000000	      0.00000000
      1.51000000	      8.21360807	     -1.63938480	     10.21602846	     -0.10922628	      0.87162290	      0.19642951	     -9.54951620	     10.12336166	      2.00239069	     13.21063011	      1.19268653	      0.23056899	     23.03429441	    -11.17755075	     -7.58162665	     21.16352163	      1.99583192	      2.66005265	     38.05661671	     -5.09383879	      0.66421326	     14.05855408	    -12.29631245	     -7.58162665	    -36.84072589	      7.32169075	     -3.72922134	     22.15115494	    -15.07008471	      5.48790071	     44.06970854	     90.00000001	      0.00000000	      0.00000000	      9.41987719	    -11.23804086	     -9.28994165	     28.97416336	     90.00000001	      0.00000000	      0.00000000
      1.52000000	      8.00102356	     -1.92244084	     10.16355992	     -0.10115884	      0.86981868	      0.19625390	     -9.84924218	     10.61115652	      1.91018298	     13.30480021	      0.88954842	      0.23221257	     23.55834906	    -10.91775193	     -7.58016657	     22.00584059	      1.65504998	      2.08119204	     35.77344807	     -4.66660259	      0.62436445	     13.92669927	    -11.48104670	     -7.58016657	    -36.51894516	      7.57996578	     -3.54152368	     22.67022819	    -15.18563882	      5.59841475	     44.38147605	     90.00000001	      0.00000000	      0.00000000	      9.04224544	    -11.10850095	     -9.38485729	     28.94919804	     90.00000001	      0.00000000	      0.00000000
      1.53000000	      8.14190380	     -1.85693330	      9.88368053	     -0.09279402	      0.86900859	      0.19612835	    -10.72691978	     10.61193582	      2.09350572	     13.26564556	      0.82330205	      0.23152919	     24.25012989	    -10.52962714	     -7.57821038	     21.91009289	      1.52332369	      1.45124138	     32.84309474	     -4.05244410	      0.57322014	     13.92397460	    -10.09739336	     -7.57821038	    -36.64581485	      7.45893132	     -3.38587482	     23.31952188	    -15.29179798	      5.98088600	     44.66885053	     90.00000001	      0.00000000	      0.00000000	      8.82734017	    -11.00887496	     -9.70735031	     28.77408436	     90.00000001	      0.00000000	      0.00000000
